<svg width="60" height="64" viewBox="0 0 60 64" fill="none" xmlns="http://www.w3.org/2000/svg">
<path d="M3.80506 54.105C2.68006 54.105 1.87006 53.28 1.87006 52.2C1.87006 51.135 2.71006 50.295 3.80506 50.295H6.92506V49.5H3.71506C2.21506 49.5 1.01506 50.7 1.01506 52.2C1.01506 53.7 2.18506 54.9 3.71506 54.9H5.24506C6.43006 54.9 7.39006 55.845 7.39006 57.045C7.39006 58.23 6.43006 59.175 5.24506 59.175H1.39006V60H5.32006C7.00006 60 8.27506 58.665 8.27506 57.045C8.27506 55.44 7.00006 54.105 5.38006 54.105H3.80506ZM12.4365 50.31H16.9965V49.5H11.5965V60H17.0415V59.175H12.4365V54.885H16.9215V54.105H12.4365V50.31ZM21.5976 50.31H26.1576V49.5H20.7576V60H26.2026V59.175H21.5976V54.885H26.0826V54.105H21.5976V50.31ZM34.4788 56.28C35.7538 55.89 36.7738 54.645 36.7738 53.085C36.7738 51.33 35.4238 49.5 33.0388 49.5H29.9188V60H30.7588V56.64H32.8738C34.7788 56.64 35.9188 58.275 35.9188 59.7V60H36.7738V59.7C36.7738 58.185 35.8288 56.805 34.4788 56.28ZM35.8888 53.085C35.8888 54.63 34.6588 55.875 33.0388 55.875H30.7588V50.295H33.0388C34.7488 50.295 35.8888 51.585 35.8888 53.085ZM52.5587 60H53.4437L49.1237 49.305L44.8037 60H45.6887L46.7687 57.27H51.4787L52.5587 60ZM49.1237 51.285L51.1637 56.505H47.0837L49.1237 51.285ZM57.3779 49.5H56.5379V60H57.3779V49.5Z" fill="#E6E1D5"/>
<path d="M0.915758 18.4934C0.777009 18.2882 0.667617 18.1208 0.587943 17.9966C0.665442 17.8727 0.771678 17.7061 0.906425 17.5022C1.22601 17.0185 1.70575 16.3248 2.34265 15.491C3.61694 13.8229 5.51747 11.5979 8.01968 9.3737C13.0263 4.92337 20.413 0.5 30 0.5C39.587 0.5 46.9737 4.92337 51.9803 9.3737C54.4825 11.5979 56.3831 13.8229 57.6574 15.491C58.2943 16.3248 58.774 17.0185 59.0936 17.5022C59.2283 17.7061 59.3346 17.8727 59.4121 17.9966C59.3324 18.1208 59.223 18.2882 59.0842 18.4934C58.757 18.9774 58.2666 19.6714 57.6178 20.5055C56.3198 22.1744 54.3908 24.4002 51.8692 26.6251C46.8228 31.0778 39.4358 35.5 30 35.5C20.5642 35.5 13.1772 31.0778 8.13081 26.6251C5.60922 24.4002 3.68019 22.1744 2.38218 20.5055C1.73343 19.6714 1.24304 18.9774 0.915758 18.4934Z" stroke="#E6E1D5"/>
<path d="M6.81545 20.7387C6.72371 20.603 6.64813 20.4882 6.58888 20.3966C6.64641 20.3055 6.71968 20.1914 6.80857 20.0569C7.06312 19.6716 7.4456 19.1185 7.95359 18.4535C8.97007 17.1228 10.4862 15.3479 12.4822 13.5737C16.4763 10.0234 22.363 6.5 30 6.5C37.637 6.5 43.5237 10.0234 47.5178 13.5737C49.5138 15.3479 51.0299 17.1228 52.0464 18.4535C52.5544 19.1185 52.9369 19.6716 53.1914 20.0569C53.2803 20.1914 53.3536 20.3055 53.4111 20.3966C53.3519 20.4882 53.2763 20.603 53.1846 20.7387C52.9238 21.1242 52.5328 21.6777 52.0153 22.343C50.9798 23.6744 49.4408 25.4501 47.4292 27.2251C43.4028 30.7778 37.5158 34.3 30 34.3C22.4842 34.3 16.5972 30.7778 12.5708 27.2251C10.5592 25.4501 9.02019 23.6744 7.98468 22.343C7.46718 21.6777 7.07616 21.1242 6.81545 20.7387Z" stroke="#E6E1D5"/>
<path d="M12.7151 22.984C12.6677 22.9138 12.626 22.8511 12.5903 22.7966C12.6248 22.7427 12.665 22.6808 12.7107 22.6116C12.9002 22.3247 13.1854 21.9123 13.5645 21.416C14.3232 20.4229 15.455 19.0979 16.9447 17.7737C19.9263 15.1234 24.313 12.5 30 12.5C35.687 12.5 40.0737 15.1234 43.0553 17.7737C44.545 19.0979 45.6768 20.4229 46.4355 21.416C46.8146 21.9123 47.0998 22.3247 47.2893 22.6116C47.335 22.6808 47.3752 22.7427 47.4097 22.7966C47.374 22.8511 47.3323 22.9138 47.2849 22.984C47.0907 23.2711 46.7991 23.6839 46.4128 24.1805C45.6398 25.1744 44.4908 26.5002 42.9892 27.8251C39.9828 30.4778 35.5958 33.1 30 33.1C24.4042 33.1 20.0172 30.4778 17.0108 27.8251C15.5092 26.5002 14.3602 25.1744 13.5872 24.1805C13.2009 23.6839 12.9093 23.2711 12.7151 22.984Z" stroke="#E6E1D5"/>
<path d="M18.6148 25.2293C18.6073 25.2181 18.5999 25.2073 18.5928 25.1967C18.5993 25.1868 18.606 25.1767 18.6129 25.1663C18.7373 24.9779 18.9253 24.706 19.1755 24.3785C19.6763 23.7228 20.4237 22.8479 21.4072 21.9737C23.3763 20.2234 26.263 18.5 30 18.5C33.737 18.5 36.6237 20.2234 38.5928 21.9737C39.5763 22.8479 40.3237 23.7228 40.8245 24.3785C41.0747 24.706 41.2627 24.9779 41.3871 25.1663C41.394 25.1767 41.4007 25.1868 41.4072 25.1967C41.4001 25.2073 41.3927 25.2181 41.3852 25.2293C41.2576 25.418 41.0653 25.6902 40.8103 26.018C40.2998 26.6744 39.5408 27.5502 38.5492 28.4251C36.5628 30.1778 33.6758 31.9 30 31.9C26.3242 31.9 23.4372 30.1778 21.4508 28.4251C20.4592 27.5502 19.7002 26.6744 19.1897 26.018C18.9347 25.6902 18.7424 25.418 18.6148 25.2293Z" stroke="#E6E1D5"/>
<path d="M24.7922 27.8555C24.7162 27.7578 24.6519 27.6705 24.5994 27.5968C24.6503 27.5238 24.7127 27.4375 24.7864 27.341C25.0294 27.0229 25.3925 26.5979 25.8697 26.1737C26.8263 25.3234 28.213 24.5 30 24.5C31.787 24.5 33.1737 25.3234 34.1303 26.1737C34.6075 26.5979 34.9706 27.0229 35.2136 27.341C35.2873 27.4375 35.3497 27.5238 35.4006 27.5968C35.3481 27.6706 35.2838 27.7578 35.2078 27.8555C34.9598 28.1744 34.5908 28.6002 34.1092 29.0251C33.1428 29.8778 31.7558 30.7 30 30.7C28.2442 30.7 26.8572 29.8778 25.8908 29.0251C25.4092 28.6002 25.0402 28.1744 24.7922 27.8555Z" stroke="#E6E1D5"/>
</svg>
